<svg clip-rule="evenodd" fill-rule="evenodd" stroke-linejoin="round" stroke-miterlimit="2" viewBox="0 0 560 400" xmlns="http://www.w3.org/2000/svg"><g fill="#00585a" transform="translate(70 155)"><path d="m59.44 21.31h5.86l9.1 23.22 9.05-23.22h5.73l-12.54 30.42h-4.66z"/><path d="m108.75 39.52-5.21-12.08-5.18 12.08zm-7.58-18.42h4.91l13.28 30.42h-5.61l-3.06-7.29h-14.27l-3.1 7.29h-5.43z"/><path d="m124.92 21.31h4.91l16.17 20.89v-20.89h5.22v30.21h-4.44l-16.64-21.49v21.49h-5.22z"/><path d="m172.73 21.31h5.3v25.37h15.86v4.84h-21.16z"/><path d="m218.12 39.52-5.22-12.08-5.17 12.08zm-7.59-18.42h4.92l13.28 30.42h-5.61l-3.06-7.29h-14.27l-3.1 7.29h-5.43z"/><path d="m234.33 21.31h4.91l16.17 20.89v-20.89h5.22v30.21h-4.44l-16.64-21.49v21.49h-5.22z"/><path d="m266.75 47.12 3.19-3.8c2.89 2.5 5.77 3.93 9.52 3.93 3.28 0 5.35-1.51 5.35-3.8v-.09c0-2.16-1.21-3.32-6.81-4.62-6.42-1.55-10.05-3.45-10.05-9v-.09c0-5.18 4.32-8.76 10.31-8.76 3.985-.079 7.87 1.27 10.95 3.8l-2.85 4c-2.314-1.907-5.193-3-8.19-3.11-3.1 0-4.91 1.6-4.91 3.59v.08c0 2.33 1.38 3.37 7.15 4.75 6.38 1.55 9.7 3.84 9.7 8.84v.09c0 5.65-4.44 9-10.77 9-4.649.027-9.143-1.69-12.59-4.81z"/><path d="m295.41 36.5v-.09c-.002-.111-.004-.222-.004-.333 0-8.388 6.903-15.29 15.29-15.29.102 0 .203.001.304.003 4.422-.162 8.713 1.55 11.81 4.71l-3.41 3.92c-2.41-2.24-5-3.75-8.45-3.75-5.77 0-9.95 4.75-9.95 10.66v.08c0 5.92 4.18 10.75 9.95 10.75 3.71 0 6.08-1.51 8.67-3.93l3.38 3.45c-3.074 3.517-7.571 5.472-12.24 5.32-.051.001-.102.001-.153.001-8.338 0-15.2-6.862-15.2-15.2 0-.1.001-.201.003-.301z"/><path d="m329 21.31h5.3v12.56h14.4v-12.56h5.3v30.21h-5.3v-12.73h-14.4v12.73h-5.3z"/><path d="m386.85 36.5v-.09c0-5.86-4.27-10.74-10.26-10.74s-10.17 4.79-10.17 10.66v.08c0 5.87 4.26 10.75 10.26 10.75s10.17-4.79 10.17-10.66zm-26 0v-.09c0-.013 0-.027 0-.04 0-8.657 7.123-15.78 15.78-15.78 8.642 0 15.758 7.098 15.78 15.74v.08.045c0 8.657-7.123 15.78-15.78 15.78-8.64 0-15.755-7.095-15.78-15.735z"/><path d="m405.08 26.23h-9.57v-4.92h24.49v4.92h-9.57v25.29h-5.35z"/><path d="m67.03 59.48h5.3v15.19l14.35-15.19h6.51l-12.54 12.99 13.1 17.22h-6.42l-10.3-13.59-4.7 4.83v8.76h-5.3z"/><path d="m99.14 59.48h22.38v4.75h-17.08v7.85h15.14v4.75h-15.14v8.11h17.29v4.75h-22.59z"/><path d="m129.32 59.48h5.64l9.19 14.29 9.18-14.29h5.65v30.21h-5.31v-21.66l-9.52 14.24h-.18l-9.44-14.16v21.58h-5.21z"/><path d="m179.88 75.19c4 0 6.51-2.24 6.51-5.39v-.09c0-3.54-2.54-5.39-6.51-5.39h-6.16v10.87zm-11.46-15.71h11.9c7 0 11.46 4 11.46 10.1v.09c0 6.77-5.43 10.31-12.07 10.31h-6v9.71h-5.3z"/><path d="m197.65 59.48h22.37v4.75h-17.07v7.85h15.13v4.75h-15.13v8.11h17.29v4.75h-22.59z"/><path d="m228.21 59.48h4.91l16.17 20.89v-20.89h5.22v30.21h-4.44l-16.64-21.49v21.49h-5.22z"/><path d="m31.53 8.55-3.22 6.2h-1.41l3.2-6h-3.59v-1.15h5zm-6.63 4.07c-.016 1.245-1.045 2.26-2.29 2.26-.07 0-.14-.004-.21-.01-1.054.031-2.065-.432-2.73-1.25l.88-.82c.439.591 1.134.94 1.87.94.037.004.074.005.111.005.603 0 1.105-.482 1.129-1.085 0-.71-.65-1.11-1.65-1.11h-.58l-.2-.78 1.93-2.07h-3.09v-1.1h4.72v.94l-2 2c1.08.15 2.1.69 2.1 2zm-6.47-4.07-3.22 6.2h-1.41l3.2-6h-3.58v-1.15h5zm-7.2 6.2h-1.23v-5.92l-1.3.36-.26-1 1.92-.62h.87zm25.53-14.75h-32.92s-3.84 0-3.84 3.34v83.32s0 3.34 3.84 3.34h14.34v-15.25c.01-.093.01-.187 0-.28-.08-.42-.06-1-.34-1.17-.48-.36-1-.67-1.47-1-1.891-1.246-3.591-2.758-5.05-4.49-1.64-2.093-2.745-4.554-3.22-7.17-.344-1.806-.149-3.674.56-5.37.285-.592.667-1.133 1.13-1.6.457-.499.542-1.24.21-1.83-.479-.942-.871-1.926-1.17-2.94-.272-.975-.357-1.993-.25-3 .108-.988.517-1.92 1.17-2.67.56-.59 1.27-.68 1.7-1.62-.554-1.628-.857-3.331-.9-5.05-.045-.755.019-1.513.19-2.25.39-1.31 1.31-1.61 2-2 .36-.19.75-.3 1.12-.48s.46-.34.46-1.14c0-3.63.48-7.07 2.4-8.86.88-.839 2.065-1.283 3.28-1.23 1.253-.056 2.481.378 3.42 1.21 2 1.79 2.51 5.23 2.51 8.86 0 .8 0 .94.49 1.14s.79.29 1.17.49c.76.38 1.72.68 2.13 2 .179.736.247 1.494.2 2.25-.045 1.717-.355 3.418-.92 5.04.45.95 1.2 1 1.78 1.63.683.731 1.112 1.665 1.22 2.66.111 1.008.019 2.028-.27 3-.294 1.036-.689 2.041-1.18 3-.36.579-.286 1.333.18 1.83.484.46.884 1.002 1.18 1.6.748 1.685.954 3.562.59 5.37-.509 2.632-1.671 5.094-3.38 7.16-1.537 1.744-3.319 3.257-5.29 4.49-.51.34-1 .66-1.53 1-.3.21-.27.75-.36 1.17-.005.093-.005.187 0 .28v15.22h14.82s3.84 0 3.84-3.34v-83.32s0-3.34-3.84-3.34z"/></g></svg>